<svg width="30" height="23" viewBox="0 0 30 23" fill="none" xmlns="http://www.w3.org/2000/svg">
<g clip-path="url(#clip0_5639_39605)">
<path d="M0 0H30V22.5H0V0Z" fill="#DE2910"/>
<path d="M3.60004 8.325L5.62502 2.25L7.64999 8.325L2.25006 4.6125H8.99998L3.60004 8.325Z" fill="#FFDE00"/>
<path d="M12.383 2.36613L10.299 2.82795L11.6891 1.20811L11.5528 3.3882L10.3963 1.45816L12.383 2.36613Z" fill="#FFDE00"/>
<path d="M14.4862 5.03054L12.3863 4.64797L14.2958 3.69405L13.3246 5.65062L13.0072 3.42312L14.4862 5.03054Z" fill="#FFDE00"/>
<path d="M14.1797 8.77259L12.4184 7.5668L14.5509 7.47463L12.8662 8.86497L13.4849 6.7017L14.1797 8.77259Z" fill="#FFDE00"/>
<path d="M11.5307 11.2151L10.3718 9.42255L12.3744 10.1612L10.2835 10.7929L11.6896 9.03649L11.5307 11.2151Z" fill="#FFDE00"/>
</g>
<defs>
<clipPath id="clip0_5639_39605">
<rect width="30" height="22.5" fill="white"/>
</clipPath>
</defs>
</svg>
