<svg width="30" height="23" viewBox="0 0 30 23" fill="none" xmlns="http://www.w3.org/2000/svg">
<g clip-path="url(#clip0_5639_39451)">
<path d="M0 0H30V22.5H0V0Z" fill="#000066"/>
<path fill-rule="evenodd" clip-rule="evenodd" d="M14.0531 18.3969L12.0047 18.575L12.286 20.6094L10.875 19.1234L9.46409 20.6094L9.74534 18.575L7.6969 18.3969L9.46409 17.3516L8.32502 15.6406L10.2469 16.3672L10.875 14.4125L11.5078 16.3672L13.4297 15.6406L12.2907 17.3516M22.8094 20.2719L22.3125 19.5312L23.1469 19.8453L23.4188 18.9969L23.6907 19.8453L24.525 19.5312L24.0328 20.2719L24.8016 20.7266L23.911 20.8063L24.0328 21.6922L23.4235 21.0406L22.8047 21.6922L22.9266 20.8063L22.036 20.7312M22.8047 7.04844L22.3125 6.30781L23.1469 6.62188L23.4188 5.77344L23.6907 6.62188L24.525 6.30781L24.0328 7.04844L24.8016 7.50781L23.911 7.58281L24.0328 8.46875L23.4235 7.82187L22.8047 8.46406L22.9266 7.58281L22.036 7.50781M17.85 12.4203L17.3578 11.6797L18.1922 11.9937L18.4641 11.1453L18.7407 11.9937L19.575 11.6797L19.0782 12.4203L19.8469 12.875L18.9563 12.9547L19.0828 13.8406L18.4641 13.1891L17.8547 13.8406L17.9719 12.9547L17.0813 12.8797M27.2203 11.0984L26.7188 10.3578L27.5532 10.6719L27.825 9.82344L28.1016 10.6719L28.936 10.3578L28.4438 11.0984L29.2078 11.5531L28.3172 11.6328L28.4391 12.5141L27.8297 11.8672L27.211 12.5141L27.3328 11.6328L26.4422 11.5531M25.4063 14.9984L24.9235 15.3031L25.0594 14.7453L24.6235 14.3797L25.1907 14.3328L25.4063 13.8078L25.6266 14.3375L26.1938 14.3797L25.7578 14.7453L25.8938 15.3031" fill="white"/>
<path d="M0 0H15V11.25H0V0Z" fill="#000066"/>
<path d="M1.75781 0L7.47656 4.24219L13.1719 0H15V1.45312L9.375 5.64844L15 9.82031V11.25H13.125L7.5 7.05469L1.89844 11.25H0V9.84375L5.60156 5.67188L0 1.5V0H1.75781Z" fill="white"/>
<path d="M9.9375 6.58594L15 10.3125V11.25L8.64844 6.58594H9.9375ZM5.625 7.05469L5.76562 7.875L1.26562 11.25H0L5.625 7.05469ZM15 0V0.0703125L9.16406 4.47656L9.21094 3.44531L13.8281 0H15ZM0 0L5.60156 4.125H4.19531L0 0.984375V0Z" fill="#C8102E"/>
<path d="M5.64844 0V11.25H9.39844V0H5.64844ZM0 3.75V7.5H15V3.75H0Z" fill="white"/>
<path d="M0 4.52344V6.77344H15V4.52344H0ZM6.39844 0V11.25H8.64844V0H6.39844Z" fill="#C8102E"/>
</g>
<defs>
<clipPath id="clip0_5639_39451">
<rect width="30" height="22.5" fill="white"/>
</clipPath>
</defs>
</svg>
