<svg width="30" height="23" viewBox="0 0 30 23" fill="none" xmlns="http://www.w3.org/2000/svg">
<g clip-path="url(#clip0_5639_39460)">
<path d="M12 0H30V22.5H12V0Z" fill="#FF0000"/>
<path d="M0 0H12V22.5H0V0Z" fill="#006600"/>
<path fill-rule="evenodd" clip-rule="evenodd" d="M15.9141 14.3555C14.4 14.3086 7.47656 9.98672 7.42969 9.29297L7.80938 8.66016C8.49844 9.65859 15.5766 13.8633 16.275 13.7133L15.9141 14.3555Z" fill="#FFFF00" stroke="black" stroke-width="0.075" stroke-linecap="round" stroke-linejoin="round"/>
<path fill-rule="evenodd" clip-rule="evenodd" d="M7.7297 8.57031C7.59377 8.93594 9.53908 10.1359 11.8735 11.5609C14.2125 12.9813 16.2281 13.8578 16.3735 13.7359L16.4438 13.6047C16.4156 13.6516 16.35 13.6656 16.2422 13.6328C15.6094 13.45 13.9641 12.6953 11.925 11.4578C9.88127 10.2203 8.10939 9.08125 7.83283 8.59844C7.81127 8.55317 7.80159 8.50316 7.8047 8.45312H7.79533L7.73908 8.55625L7.7297 8.57031ZM15.9469 14.3734C15.9235 14.4203 15.8719 14.4203 15.7828 14.4109C15.2203 14.35 13.5047 13.5156 11.475 12.3016C9.11252 10.8859 7.16252 9.60156 7.37814 9.26406L7.43439 9.16094L7.44377 9.16562C7.25627 9.7375 11.2922 12.0438 11.5313 12.1938C13.8656 13.6375 15.8344 14.4859 16.0078 14.2656L15.9469 14.3734Z" fill="#FFFF00" stroke="black" stroke-width="0.075" stroke-linecap="round" stroke-linejoin="round"/>
<path fill-rule="evenodd" clip-rule="evenodd" d="M12.0094 9.7125C13.5187 9.69844 15.3844 9.50625 16.4625 9.075L16.2281 8.7C15.5953 9.05156 13.7203 9.28594 11.9953 9.31875C9.96091 9.3 8.52185 9.10781 7.79998 8.625L7.58435 9.02813C8.90623 9.59063 10.2656 9.70781 12.0094 9.7125Z" fill="#FFFF00"/>
<path d="M12.0094 9.7125C13.5187 9.69844 15.3844 9.50625 16.4625 9.075L16.2281 8.7C15.5953 9.05156 13.7203 9.28594 11.9953 9.31875C9.96091 9.3 8.52185 9.10781 7.79998 8.625L7.58435 9.02813C8.90623 9.59063 10.2656 9.70781 12.0094 9.7125" stroke="black" stroke-width="0.075" stroke-linecap="round" stroke-linejoin="round"/>
<path fill-rule="evenodd" clip-rule="evenodd" d="M16.5235 9.0875C16.486 9.14844 15.7828 9.3875 14.7516 9.56562C13.8425 9.70338 12.9242 9.77077 12.0047 9.76719C11.1238 9.77049 10.2436 9.71411 9.37034 9.59844C8.28752 9.42969 7.72971 9.19531 7.51877 9.11094L7.57034 9.00781C8.16565 9.24219 8.72815 9.38281 9.3844 9.48594C10.2513 9.603 11.1252 9.66094 12 9.65937C12.9147 9.66033 13.8282 9.59296 14.7328 9.45781C15.7875 9.28437 16.3641 9.06406 16.4485 8.96562L16.5235 9.09219V9.0875ZM16.3172 8.70781C16.2047 8.80156 15.6328 9.00312 14.6297 9.1625C13.7635 9.28782 12.8893 9.35049 12.0141 9.35C10.9828 9.35 10.1344 9.275 9.49221 9.18125C8.47034 9.05 7.92659 8.80625 7.72971 8.74062L7.79065 8.6375C7.94534 8.71719 8.46565 8.92812 9.50159 9.07344C10.3344 9.18498 11.1739 9.23824 12.0141 9.23281C12.8831 9.23308 13.751 9.17042 14.611 9.04531C15.6188 8.90469 16.1625 8.65156 16.2469 8.58594L16.3172 8.70781ZM7.04534 11.5344C7.97346 12.0359 10.0406 12.2844 11.9953 12.3031C13.7766 12.3078 16.0922 12.0312 16.9594 11.5719L16.936 11.0703C16.6641 11.4922 14.1797 11.9 11.9766 11.8859C9.77346 11.8672 7.72502 11.5297 7.04065 11.0891V11.5344" fill="#FFFF00"/>
<path d="M7.04534 11.5344C7.97346 12.0359 10.0406 12.2844 11.9953 12.3031C13.7766 12.3078 16.0922 12.0312 16.9594 11.5719L16.936 11.0703C16.6641 11.4922 14.1797 11.9 11.9766 11.8859C9.77346 11.8672 7.72502 11.5297 7.04065 11.0891V11.5344M16.5235 9.0875C16.486 9.14844 15.7828 9.3875 14.7516 9.56562C13.8425 9.70338 12.9242 9.77077 12.0047 9.76719C11.1238 9.77049 10.2436 9.71411 9.37034 9.59844C8.28752 9.42969 7.72971 9.19531 7.51877 9.11094L7.57034 9.00781C8.16565 9.24219 8.72815 9.38281 9.3844 9.48594C10.2513 9.603 11.1252 9.66094 12 9.65937C12.9147 9.66033 13.8282 9.59296 14.7328 9.45781C15.7875 9.28437 16.3641 9.06406 16.4485 8.96562L16.5235 9.09219V9.0875ZM16.3172 8.70781C16.2047 8.80156 15.6328 9.00312 14.6297 9.1625C13.7635 9.28782 12.8893 9.35049 12.0141 9.35C10.9828 9.35 10.1344 9.275 9.49221 9.18125C8.47034 9.05 7.92659 8.80625 7.72971 8.74062L7.79065 8.6375C7.94534 8.71719 8.46565 8.92812 9.50159 9.07344C10.3344 9.18498 11.1739 9.23824 12.0141 9.23281C12.8831 9.23308 13.751 9.17042 14.611 9.04531C15.6188 8.90469 16.1625 8.65156 16.2469 8.58594L16.3172 8.70781V8.70781Z" stroke="black" stroke-width="0.075" stroke-linecap="round" stroke-linejoin="round"/>
<path fill-rule="evenodd" clip-rule="evenodd" d="M17.0062 11.4641V11.5812C16.875 11.7406 16.0594 11.975 15.0375 12.1437C14.0223 12.2897 12.9975 12.3586 11.9719 12.35C10.9994 12.3583 10.0277 12.2909 9.06562 12.1484C8.34776 12.0655 7.64629 11.8759 6.98438 11.5859V11.45C7.43906 11.75 8.66719 11.975 9.07969 12.0406C9.82031 12.1531 10.7719 12.2375 11.9719 12.2375C13.2328 12.2375 14.2406 12.1484 15.0187 12.0312C15.7547 11.9234 16.8 11.6469 17.0062 11.4641ZM17.0062 11.0422V11.1594C16.875 11.3141 16.0594 11.5484 15.0375 11.7172C14.0224 11.8647 12.9976 11.9352 11.9719 11.9281C10.9994 11.9338 10.028 11.8665 9.06562 11.7266C8.34776 11.6436 7.64629 11.454 6.98438 11.1641V11.0234C7.43906 11.3281 8.67187 11.5484 9.07969 11.6141C10.0373 11.7543 11.0041 11.8217 11.9719 11.8156C13.2328 11.8156 14.2453 11.7219 15.0187 11.6047C15.7547 11.5016 16.8 11.225 17.0062 11.0422ZM11.9906 14.2672C9.85313 14.2578 8.02031 13.6859 7.63125 13.5922L7.9125 14.0328C9.2273 14.4985 10.6147 14.7255 12.0094 14.7031C13.6359 14.6562 15.0562 14.5297 16.0547 14.0422L16.3453 13.5828C15.6656 13.9063 13.3453 14.2672 11.9859 14.2672" fill="#FFFF00"/>
<path d="M11.9906 14.2672C9.85313 14.2578 8.02031 13.6859 7.63125 13.5922L7.9125 14.0328C9.2273 14.4985 10.6147 14.7255 12.0094 14.7031C13.6359 14.6562 15.0563 14.5297 16.0547 14.0422L16.3453 13.5828C15.6656 13.9063 13.3453 14.2672 11.9859 14.2672M17.0062 11.4641V11.5812C16.875 11.7406 16.0594 11.975 15.0375 12.1437C14.0223 12.2897 12.9975 12.3586 11.9719 12.35C10.9994 12.3583 10.0277 12.2909 9.06562 12.1484C8.34776 12.0655 7.64629 11.8759 6.98438 11.5859V11.45C7.43906 11.75 8.66719 11.975 9.07969 12.0406C9.82031 12.1531 10.7719 12.2375 11.9719 12.2375C13.2328 12.2375 14.2406 12.1484 15.0187 12.0312C15.7547 11.9234 16.8 11.6469 17.0062 11.4641V11.4641ZM17.0062 11.0422V11.1594C16.875 11.3141 16.0594 11.5484 15.0375 11.7172C14.0224 11.8647 12.9976 11.9352 11.9719 11.9281C10.9994 11.9338 10.028 11.8665 9.06562 11.7266C8.34776 11.6436 7.64629 11.454 6.98438 11.1641V11.0234C7.43906 11.3281 8.67187 11.5484 9.07969 11.6141C10.0373 11.7543 11.0041 11.8217 11.9719 11.8156C13.2328 11.8156 14.2453 11.7219 15.0187 11.6047C15.7547 11.5016 16.8 11.225 17.0062 11.0422V11.0422Z" stroke="black" stroke-width="0.075" stroke-linecap="round" stroke-linejoin="round"/>
<path fill-rule="evenodd" clip-rule="evenodd" d="M16.1672 13.9367C16.1245 14 16.0808 14.0625 16.0359 14.1242C15.5672 14.293 14.8172 14.4711 14.5078 14.518C13.6776 14.6727 12.8351 14.7511 11.9906 14.7523C10.0969 14.7242 8.54531 14.3539 7.81875 14.0352L7.75781 13.9367L7.76719 13.918L7.86563 13.9602C9.1997 14.4016 10.5948 14.631 12 14.6398C12.8812 14.6398 13.7578 14.5414 14.4656 14.4148C15.5531 14.1945 15.9938 14.0305 16.1297 13.9555L16.1625 13.9367H16.1672ZM16.4156 13.5242C16.3848 13.5791 16.3535 13.6338 16.3219 13.6883C16.0688 13.782 15.3844 13.9789 14.3859 14.1195C13.7297 14.2086 13.3219 14.2977 12.0141 14.3211C10.519 14.3061 9.03321 14.0853 7.59844 13.6648L7.54688 13.5477C9.00462 13.9505 10.5067 14.171 12.0187 14.2039C13.2141 14.1805 13.725 14.0914 14.3766 14.0023C15.5391 13.8242 16.125 13.6273 16.2984 13.5758C16.2985 13.5727 16.2985 13.5695 16.2984 13.5664L16.4203 13.5195L16.4156 13.5242Z" fill="#FFFF00" stroke="black" stroke-width="0.075" stroke-linecap="round" stroke-linejoin="round"/>
<path fill-rule="evenodd" clip-rule="evenodd" d="M16.4438 11.1375C16.4485 12.5437 15.7266 13.8094 15.15 14.3625C14.2985 15.193 13.1613 15.666 11.9719 15.6844C10.5516 15.7078 9.21566 14.7844 8.85472 14.3766C8.04726 13.5203 7.5877 12.3939 7.56566 11.2172C7.65003 9.67969 8.25472 8.61094 9.12659 7.875C9.97355 7.17777 11.039 6.80105 12.136 6.81094C12.7763 6.84198 13.4032 7.00646 13.9763 7.29382C14.5494 7.58119 15.0561 7.9851 15.4641 8.47969C16.05 9.19219 16.3078 9.96563 16.4438 11.1375ZM11.9813 6.32813C13.2926 6.32809 14.5508 6.84643 15.4815 7.77015C16.4123 8.69388 16.9401 9.94809 16.95 11.2594C16.95 11.91 16.8219 12.5543 16.5729 13.1555C16.3239 13.7566 15.9589 14.3028 15.4988 14.7629C15.0388 15.223 14.4926 15.5879 13.8914 15.8369C13.2903 16.0859 12.646 16.2141 11.9953 16.2141C11.3447 16.2141 10.7004 16.0859 10.0993 15.8369C9.49814 15.5879 8.95194 15.223 8.49185 14.7629C8.03177 14.3028 7.66681 13.7566 7.41781 13.1555C7.16881 12.5543 7.04066 11.91 7.04066 11.2594C7.03597 8.54062 9.25784 6.32813 11.9813 6.32813Z" fill="#FFFF00"/>
<path d="M11.9813 6.32813C13.2926 6.32809 14.5508 6.84643 15.4815 7.77015C16.4123 8.69388 16.9401 9.94809 16.95 11.2594C16.95 11.91 16.8219 12.5543 16.5729 13.1555C16.3239 13.7566 15.9589 14.3028 15.4988 14.7629C15.0388 15.223 14.4926 15.5879 13.8914 15.8369C13.2903 16.0859 12.646 16.2141 11.9953 16.2141C11.3447 16.2141 10.7004 16.0859 10.0993 15.8369C9.49814 15.5879 8.95194 15.223 8.49185 14.7629C8.03177 14.3028 7.66681 13.7566 7.41781 13.1555C7.16881 12.5543 7.04066 11.91 7.04066 11.2594C7.03597 8.54062 9.25784 6.32813 11.9813 6.32813M16.4438 11.1375C16.4485 12.5437 15.7266 13.8094 15.15 14.3625C14.2985 15.193 13.1613 15.666 11.9719 15.6844C10.5516 15.7078 9.21566 14.7844 8.85472 14.3766C8.04726 13.5203 7.5877 12.3939 7.56566 11.2172C7.65003 9.67969 8.25472 8.61094 9.12659 7.875C9.97355 7.17777 11.039 6.80105 12.136 6.81094C12.7763 6.84198 13.4032 7.00646 13.9763 7.29382C14.5494 7.58119 15.0561 7.9851 15.4641 8.47969C16.05 9.19219 16.3078 9.96562 16.4438 11.1375V11.1375Z" stroke="black" stroke-width="0.075" stroke-linecap="round" stroke-linejoin="round"/>
<path fill-rule="evenodd" clip-rule="evenodd" d="M11.9954 6.30469C14.7235 6.30469 16.9454 8.52656 16.9454 11.2547C16.9454 13.9828 14.7235 16.2047 12 16.2047C9.27661 16.2047 7.05005 13.9828 7.05005 11.2547C7.05005 8.52656 9.27192 6.30469 12 6.30469H11.9954ZM7.15317 11.25C7.15317 13.9125 9.34224 16.0922 11.9954 16.0922C14.6485 16.0922 16.8376 13.9125 16.8376 11.25C16.8376 8.5875 14.6485 6.40781 11.9954 6.40781C9.34224 6.40781 7.15317 8.5875 7.15317 11.25Z" fill="#FFFF00" stroke="black" stroke-width="0.075" stroke-linecap="round" stroke-linejoin="round"/>
<path fill-rule="evenodd" clip-rule="evenodd" d="M12 6.71875C13.201 6.72246 14.3518 7.20121 15.2011 8.05048C16.0503 8.89974 16.5291 10.0505 16.5328 11.2516C16.5291 12.453 16.0505 13.6043 15.2014 14.4543C14.3522 15.3043 13.2014 15.7841 12 15.7891C9.5156 15.7891 7.46716 13.7453 7.46716 11.2516C7.4721 10.0509 7.95125 8.90083 8.80025 8.05183C9.64925 7.20283 10.7993 6.72369 12 6.71875ZM7.57498 11.2516C7.57498 13.6891 9.57185 15.6766 12 15.6766C14.4281 15.6766 16.425 13.6844 16.425 11.2516C16.425 8.81406 14.4281 6.82656 12 6.82656C10.8279 6.8315 9.70526 7.29929 8.87648 8.12807C8.0477 8.95685 7.57991 10.0795 7.57498 11.2516Z" fill="#FFFF00" stroke="black" stroke-width="0.075" stroke-linecap="round" stroke-linejoin="round"/>
<path fill-rule="evenodd" clip-rule="evenodd" d="M12.2016 6.28125H11.775V16.2328H12.1969L12.2016 6.28125Z" fill="#FFFF00" stroke="black" stroke-width="0.075" stroke-linecap="round" stroke-linejoin="round"/>
<path fill-rule="evenodd" clip-rule="evenodd" d="M12.1547 6.22656H12.2625V16.2906H12.1594V6.22656H12.1547ZM11.7328 6.22656H11.8453V16.2906H11.7375V6.22656H11.7328Z" fill="#FFFF00" stroke="black" stroke-width="0.075" stroke-linecap="round" stroke-linejoin="round"/>
<path fill-rule="evenodd" clip-rule="evenodd" d="M16.95 11.4469V11.0812L16.65 10.8L14.9485 10.35L12.5016 10.1016L9.54849 10.2516L7.44849 10.7484L7.02661 11.0625V11.4328L8.10005 10.95L10.65 10.5516H13.1016L14.9016 10.7484L16.1485 11.0484L16.95 11.4469Z" fill="#FFFF00" stroke="black" stroke-width="0.075" stroke-linecap="round" stroke-linejoin="round"/>
<path fill-rule="evenodd" clip-rule="evenodd" d="M12 10.4909C13.1672 10.4909 14.2969 10.5987 15.2016 10.7721C16.1297 10.9596 16.7812 11.194 17.0062 11.4518V11.5831C16.7344 11.2549 15.8578 11.0206 15.1781 10.8799C14.2875 10.7112 13.1625 10.5987 11.9953 10.5987C10.7719 10.5987 9.62813 10.7206 8.74688 10.8893C8.04375 11.0299 7.10156 11.3112 6.98438 11.5831V11.4471C7.04531 11.2596 7.74844 10.9784 8.73281 10.7768C9.61875 10.6034 10.7625 10.4909 11.9953 10.4909H12ZM12 10.0643C13.0734 10.0621 14.1449 10.1563 15.2016 10.3456C16.1297 10.5331 16.7812 10.7674 17.0062 11.0299V11.1565C16.7344 10.8331 15.8578 10.594 15.1781 10.4581C14.2875 10.2846 13.1625 10.1768 11.9953 10.1768C10.9074 10.1734 9.82153 10.2706 8.75156 10.4674C8.07187 10.594 7.09219 10.8846 6.98438 11.1565V11.0252C7.05 10.8377 7.7625 10.5424 8.73281 10.3549C9.62344 10.1815 10.7625 10.0643 12 10.0643ZM11.9719 7.89868C13.8141 7.8893 15.4219 8.15649 16.1578 8.53149L16.425 9.00024C15.7875 8.65336 14.0531 8.29711 11.9766 8.34399C10.2844 8.35805 8.475 8.53149 7.57031 9.01899L7.88906 8.48461C8.63438 8.09555 10.3875 7.89868 11.9719 7.89868Z" fill="#FFFF00"/>
<path d="M11.9719 7.89868C13.8141 7.8893 15.4219 8.15649 16.1578 8.53149L16.425 9.00024C15.7875 8.65336 14.0531 8.29711 11.9766 8.34399C10.2844 8.35805 8.475 8.53149 7.57031 9.01899L7.88906 8.48461C8.63438 8.09555 10.3875 7.89868 11.9719 7.89868M12 10.4909C13.1672 10.4909 14.2969 10.5987 15.2016 10.7721C16.1297 10.9596 16.7812 11.194 17.0062 11.4518V11.5831C16.7344 11.2549 15.8578 11.0206 15.1781 10.8799C14.2875 10.7112 13.1625 10.5987 11.9953 10.5987C10.7719 10.5987 9.62813 10.7206 8.74688 10.8893C8.04375 11.0299 7.10156 11.3112 6.98438 11.5831V11.4471C7.04531 11.2596 7.74844 10.9784 8.73281 10.7768C9.61875 10.6034 10.7625 10.4909 11.9953 10.4909H12ZM12 10.0643C13.0734 10.0621 14.1449 10.1563 15.2016 10.3456C16.1297 10.5331 16.7812 10.7674 17.0062 11.0299V11.1565C16.7344 10.8331 15.8578 10.594 15.1781 10.4581C14.2875 10.2846 13.1625 10.1768 11.9953 10.1768C10.9074 10.1734 9.82153 10.2706 8.75156 10.4674C8.07187 10.594 7.09219 10.8846 6.98438 11.1565V11.0252C7.05 10.8377 7.7625 10.5424 8.73281 10.3549C9.62344 10.1815 10.7625 10.0643 12 10.0643V10.0643Z" stroke="black" stroke-width="0.075" stroke-linecap="round" stroke-linejoin="round"/>
<path fill-rule="evenodd" clip-rule="evenodd" d="M12 8.28302C12.9618 8.26679 13.9233 8.33424 14.8734 8.48459C15.6234 8.62521 16.3406 8.83146 16.4437 8.94396L16.5234 9.08459C16.275 8.92521 15.6515 8.7424 14.8547 8.5924C14.0578 8.4424 13.0406 8.39084 11.9953 8.39552C10.8094 8.39084 9.88591 8.45177 9.09841 8.5924C8.55555 8.66848 8.02849 8.83151 7.53748 9.07521L7.61716 8.9299C7.89841 8.78927 8.33435 8.61584 9.07498 8.4799C9.89529 8.3299 10.8281 8.28771 12 8.28302ZM12 7.86115C13.0031 7.85177 13.9969 7.90802 14.7703 8.04865C15.2714 8.12305 15.7563 8.28152 16.2047 8.5174L16.3219 8.7049C16.125 8.48459 15.3844 8.27365 14.7234 8.16115C13.9547 8.02521 13.0031 7.97365 12 7.96427C11.0662 7.95595 10.1333 8.02494 9.21091 8.17052C8.72861 8.23773 8.26018 8.38174 7.82341 8.59709L7.92654 8.4424C8.19841 8.30177 8.63904 8.17052 9.19216 8.06271C10.1206 7.91521 11.0599 7.84622 12 7.85646V7.86115ZM14.4562 13.3127C13.6437 13.172 12.8197 13.1093 11.9953 13.1252C8.92498 13.1627 7.93591 13.758 7.81404 13.9361L7.57966 13.5611C8.36716 12.9986 10.0359 12.6799 12.014 12.708C13.0406 12.7268 13.9265 12.7971 14.6672 12.9424L14.4562 13.3174" fill="#FFFF00"/>
<path d="M14.4562 13.3127C13.6437 13.172 12.8197 13.1093 11.9953 13.1252C8.92498 13.1627 7.93591 13.758 7.81404 13.9361L7.57966 13.5611C8.36716 12.9986 10.0359 12.6799 12.014 12.708C13.0406 12.7268 13.9265 12.7971 14.6672 12.9424L14.4562 13.3174M12 8.28302C12.9618 8.26679 13.9233 8.33424 14.8734 8.48459C15.6234 8.62521 16.3406 8.83146 16.4437 8.94396L16.5234 9.08459C16.275 8.92521 15.6515 8.7424 14.8547 8.5924C14.0578 8.4424 13.0406 8.39084 11.9953 8.39552C10.8094 8.39084 9.88591 8.45177 9.09841 8.5924C8.55555 8.66848 8.02849 8.83151 7.53748 9.07521L7.61716 8.9299C7.89841 8.78927 8.33435 8.61584 9.07498 8.4799C9.89529 8.3299 10.8281 8.28771 12 8.28302V8.28302ZM12 7.86115C13.0031 7.85177 13.9969 7.90802 14.7703 8.04865C15.2714 8.12305 15.7563 8.28152 16.2047 8.5174L16.3219 8.7049C16.125 8.48459 15.3844 8.27365 14.7234 8.16115C13.9547 8.02521 13.0031 7.97365 12 7.96427C11.0662 7.95595 10.1333 8.02494 9.21091 8.17052C8.72861 8.23773 8.26018 8.38174 7.82341 8.59709L7.92654 8.4424C8.19841 8.30177 8.63904 8.17052 9.19216 8.06271C10.1206 7.91521 11.0599 7.84622 12 7.85646V7.86115Z" stroke="black" stroke-width="0.075" stroke-linecap="round" stroke-linejoin="round"/>
<path fill-rule="evenodd" clip-rule="evenodd" d="M11.9813 13.0758C12.8344 13.0899 13.6688 13.1227 14.4797 13.2727L14.4235 13.3758C13.6735 13.2352 12.8672 13.1883 11.986 13.1883C10.8469 13.1789 9.70317 13.2867 8.70474 13.5727C8.39067 13.6617 7.87036 13.8633 7.81411 14.032L7.75786 13.9383C7.77661 13.8352 8.08599 13.6289 8.67661 13.4695C9.82036 13.1414 10.8891 13.0805 11.9813 13.0758ZM12.0188 12.6445C12.9193 12.6436 13.818 12.722 14.7047 12.8789L14.6438 12.9867C13.778 12.8279 12.8991 12.751 12.0188 12.757C10.8844 12.757 9.67974 12.8414 8.58286 13.1602C8.2313 13.2633 7.61724 13.4883 7.59849 13.6617L7.54224 13.5586C7.55161 13.3992 8.0813 13.1883 8.55942 13.0524C9.66099 12.7289 10.8704 12.6492 12.0188 12.6445Z" fill="#FFFF00" stroke="black" stroke-width="0.075" stroke-linecap="round" stroke-linejoin="round"/>
<path fill-rule="evenodd" clip-rule="evenodd" d="M16.3781 13.6187L16.0125 14.1953L14.9484 13.2531L12.2015 11.4016L9.09841 9.7L7.4906 9.15156L7.83279 8.51406L7.94998 8.45312L8.94841 8.70156L12.2484 10.4031L14.1515 11.6031L15.75 12.7516L16.4015 13.5016L16.3781 13.6187Z" fill="#FFFF00" stroke="black" stroke-width="0.075" stroke-linecap="round" stroke-linejoin="round"/>
<path fill-rule="evenodd" clip-rule="evenodd" d="M7.43435 9.16706C7.7156 8.97956 9.78748 9.89831 11.9625 11.2108C14.1234 12.5233 16.1953 14.0046 16.0078 14.2811L15.9469 14.3796L15.9187 14.403C15.9234 14.3983 15.9562 14.3561 15.9187 14.2577C15.825 13.953 14.3531 12.7811 11.9203 11.3092C9.54373 9.89831 7.5656 9.04519 7.37341 9.28894L7.43435 9.16706ZM16.4531 13.6155C16.6312 13.2592 14.7094 11.8108 12.3234 10.3999C9.88591 9.01706 8.12341 8.20144 7.79998 8.44519L7.73435 8.58113C7.73435 8.58581 7.73435 8.57175 7.7531 8.55769C7.80935 8.51081 7.90779 8.51081 7.94998 8.51081C8.5031 8.52019 10.0828 9.24675 12.3 10.5171C13.275 11.0796 16.4062 13.0952 16.3922 13.6577C16.3922 13.7046 16.3969 13.7139 16.3781 13.7421L16.4578 13.6202L16.4531 13.6155Z" fill="#FFFF00" stroke="black" stroke-width="0.075" stroke-linecap="round" stroke-linejoin="round"/>
<path d="M9.03003 11.801C9.03077 12.1891 9.10849 12.5732 9.25868 12.9311C9.40888 13.289 9.62857 13.6135 9.90503 13.886C10.1781 14.1633 10.5034 14.3838 10.8621 14.5348C11.2208 14.6858 11.6058 14.7644 11.995 14.766C12.7827 14.7659 13.5381 14.453 14.095 13.896C14.3705 13.622 14.5892 13.2964 14.7385 12.9377C14.8878 12.5791 14.9648 12.1944 14.965 11.806V7.84594L9.03003 7.83594V11.801Z" fill="white" stroke="black" stroke-width="0.0933336"/>
<path d="M9.14001 11.8049C9.14107 12.1772 9.21584 12.5456 9.36001 12.8889C9.50419 13.2321 9.71491 13.5435 9.98002 13.8049C10.5123 14.34 11.2352 14.6421 11.99 14.6449C12.7435 14.6453 13.4664 14.3468 14 13.8149C14.2642 13.553 14.474 13.2415 14.6173 12.8983C14.7606 12.555 14.8346 12.1868 14.835 11.8149V7.96484H9.15001V11.8049M13.7 9.11985V11.5649L13.695 11.8199C13.6967 12.0432 13.6533 12.2646 13.5674 12.4708C13.4815 12.677 13.3548 12.8638 13.195 13.0199C12.8771 13.3389 12.4455 13.5188 11.995 13.5199C11.525 13.5199 11.11 13.3199 10.8 13.0099C10.481 12.6919 10.3011 12.2603 10.3 11.8099V9.10985L13.7 9.11985Z" fill="#FF0000"/>
<path d="M9.14001 11.8049C9.14107 12.1772 9.21584 12.5456 9.36001 12.8889C9.50419 13.2321 9.71491 13.5435 9.98002 13.8049C10.5123 14.34 11.2352 14.6421 11.99 14.6449C12.7435 14.6453 13.4664 14.3468 14 13.8149C14.2642 13.553 14.474 13.2415 14.6173 12.8983C14.7606 12.555 14.8346 12.1868 14.835 11.8149V7.96484H9.15001V11.8049M13.7 9.11985V11.5649L13.695 11.8199C13.6967 12.0432 13.6533 12.2646 13.5674 12.4708C13.4815 12.677 13.3548 12.8638 13.195 13.0199C12.8771 13.3389 12.4455 13.5188 11.995 13.5199C11.525 13.5199 11.11 13.3199 10.8 13.0099C10.481 12.6919 10.3011 12.2603 10.3 11.8099V9.10985L13.7 9.11985Z" stroke="black" stroke-width="0.0666669"/>
<path d="M9.51001 8.96891C9.51501 8.69391 9.71001 8.62891 9.71001 8.62891C9.71501 8.62891 9.92501 8.69891 9.92501 8.97391H9.51001" fill="#FFFF00"/>
<path d="M9.34001 8.63391L9.30501 8.94891H9.51501C9.51501 8.68891 9.71501 8.64891 9.71501 8.64891C9.72001 8.64891 9.91501 8.70391 9.92001 8.94891H10.13L10.09 8.62891H9.34001V8.63391ZM9.29001 8.95391H10.14C10.155 8.95391 10.17 8.96891 10.17 8.98891C10.17 9.01391 10.155 9.02891 10.14 9.02891H9.29001C9.27501 9.02891 9.26001 9.01391 9.26001 8.98891C9.26001 8.96891 9.27501 8.95391 9.29501 8.95391H9.29001Z" fill="#FFFF00" stroke="black" stroke-width="0.0666669"/>
<path d="M9.60003 8.94907C9.60003 8.78406 9.71503 8.73906 9.71503 8.73906C9.71503 8.73906 9.83003 8.78906 9.83003 8.94907H9.60003ZM9.31003 8.49906H10.125C10.14 8.49906 10.155 8.51906 10.155 8.53906C10.155 8.55406 10.14 8.56906 10.125 8.56906H9.31003C9.29503 8.56906 9.28003 8.55406 9.28003 8.53406C9.28003 8.51906 9.29503 8.50406 9.31003 8.50406V8.49906ZM9.33003 8.57406H10.1C10.115 8.57406 10.13 8.58906 10.13 8.60906C10.13 8.62906 10.115 8.64406 10.1 8.64406H9.32503C9.30503 8.64406 9.29503 8.62906 9.29503 8.60906C9.29503 8.58906 9.30503 8.57406 9.32503 8.57406H9.33003ZM9.58003 8.04406H9.64003V8.08406H9.68503V8.04406H9.75003V8.08906H9.79503V8.03906H9.85503V8.13906C9.85503 8.15906 9.84503 8.16906 9.83003 8.16906H9.61003C9.59503 8.16906 9.58003 8.15906 9.58003 8.14406V8.04406ZM9.81003 8.17906L9.82503 8.49906H9.61003L9.62503 8.17406H9.81003" fill="#FFFF00"/>
<path d="M9.81003 8.17906L9.82503 8.49906H9.61003L9.62503 8.17406H9.81003M9.60003 8.94907C9.60003 8.78406 9.71503 8.73906 9.71503 8.73906C9.71503 8.73906 9.83003 8.78906 9.83003 8.94907H9.60003ZM9.31003 8.49906H10.125C10.14 8.49906 10.155 8.51906 10.155 8.53906C10.155 8.55406 10.14 8.56906 10.125 8.56906H9.31003C9.29503 8.56906 9.28003 8.55406 9.28003 8.53406C9.28003 8.51906 9.29503 8.50406 9.31003 8.50406V8.49906ZM9.33003 8.57406H10.1C10.115 8.57406 10.13 8.58906 10.13 8.60906C10.13 8.62906 10.115 8.64406 10.1 8.64406H9.32503C9.30503 8.64406 9.29503 8.62906 9.29503 8.60906C9.29503 8.58906 9.30503 8.57406 9.32503 8.57406H9.33003ZM9.58003 8.04406H9.64003V8.08406H9.68503V8.04406H9.75003V8.08906H9.79503V8.03906H9.85503V8.13906C9.85503 8.15906 9.84503 8.16906 9.83003 8.16906H9.61003C9.59503 8.16906 9.58003 8.15906 9.58003 8.14406V8.04406Z" stroke="black" stroke-width="0.0666669"/>
<path d="M9.54998 8.32812V8.49813H9.34998V8.32812H9.54998Z" fill="#FFFF00" stroke="black" stroke-width="0.0666669"/>
<path d="M9.54998 8.32812V8.49813H9.34998V8.32812H9.54998Z" fill="#FFFF00" stroke="black" stroke-width="0.0666669"/>
<path d="M9.31506 8.19922H9.37506V8.24922H9.42006V8.19922H9.48006V8.24922H9.52506V8.19922H9.58506V8.29922C9.58506 8.31922 9.57506 8.32922 9.56006 8.32922H9.34506C9.33711 8.32922 9.32948 8.32606 9.32385 8.32043C9.31822 8.31481 9.31506 8.30718 9.31506 8.29922V8.19922Z" fill="#FFFF00" stroke="black" stroke-width="0.0666669"/>
<path d="M9.31506 8.19922H9.37506V8.24922H9.42006V8.19922H9.48006V8.24922H9.52506V8.19922H9.58506V8.29922C9.58506 8.31922 9.57506 8.32922 9.56006 8.32922H9.34506C9.33711 8.32922 9.32948 8.32606 9.32385 8.32043C9.31822 8.31481 9.31506 8.30718 9.31506 8.29922V8.19922Z" fill="#FFFF00" stroke="black" stroke-width="0.0666669"/>
<path d="M9.69507 8.28031C9.69507 8.25031 9.74007 8.25031 9.74007 8.28031V8.36031H9.69507V8.28031Z" fill="black"/>
<path d="M9.43005 8.38969C9.43005 8.35969 9.47005 8.35969 9.47005 8.38969V8.44969H9.43005V8.38969Z" fill="black"/>
<path d="M9.43005 8.38969C9.43005 8.35969 9.47005 8.35969 9.47005 8.38969V8.44969H9.43005V8.38969Z" fill="black"/>
<path d="M9.51001 8.96891C9.51501 8.69391 9.71001 8.62891 9.71001 8.62891C9.71501 8.62891 9.92501 8.69891 9.92501 8.97391H9.51001" fill="#FFFF00"/>
<path d="M9.34001 8.63391L9.30501 8.94891H9.51501C9.51501 8.68891 9.71501 8.64891 9.71501 8.64891C9.72001 8.64891 9.91501 8.70391 9.92001 8.94891H10.13L10.09 8.62891H9.34001V8.63391ZM9.29001 8.95391H10.14C10.155 8.95391 10.17 8.96891 10.17 8.98891C10.17 9.01391 10.155 9.02891 10.14 9.02891H9.29001C9.27501 9.02891 9.26001 9.01391 9.26001 8.98891C9.26001 8.96891 9.27501 8.95391 9.29501 8.95391H9.29001Z" fill="#FFFF00" stroke="black" stroke-width="0.0666669"/>
<path d="M9.60003 8.94907C9.60003 8.78406 9.71503 8.73906 9.71503 8.73906C9.71503 8.73906 9.83003 8.78906 9.83003 8.94907H9.60003ZM9.31003 8.49906H10.125C10.14 8.49906 10.155 8.51906 10.155 8.53906C10.155 8.55406 10.14 8.56906 10.125 8.56906H9.31003C9.29503 8.56906 9.28003 8.55406 9.28003 8.53406C9.28003 8.51906 9.29503 8.50406 9.31003 8.50406V8.49906ZM9.33003 8.57406H10.1C10.115 8.57406 10.13 8.58906 10.13 8.60906C10.13 8.62906 10.115 8.64406 10.1 8.64406H9.32503C9.30503 8.64406 9.29503 8.62906 9.29503 8.60906C9.29503 8.58906 9.30503 8.57406 9.32503 8.57406H9.33003ZM9.58003 8.04406H9.64003V8.08406H9.68503V8.04406H9.75003V8.08906H9.79503V8.03906H9.85503V8.13906C9.85503 8.15906 9.84503 8.16906 9.83003 8.16906H9.61003C9.59503 8.16906 9.58003 8.15906 9.58003 8.14406V8.04406ZM9.81003 8.17906L9.82503 8.49906H9.61003L9.62503 8.17406H9.81003" fill="#FFFF00"/>
<path d="M9.81003 8.17906L9.82503 8.49906H9.61003L9.62503 8.17406H9.81003M9.60003 8.94907C9.60003 8.78406 9.71503 8.73906 9.71503 8.73906C9.71503 8.73906 9.83003 8.78906 9.83003 8.94907H9.60003ZM9.31003 8.49906H10.125C10.14 8.49906 10.155 8.51906 10.155 8.53906C10.155 8.55406 10.14 8.56906 10.125 8.56906H9.31003C9.29503 8.56906 9.28003 8.55406 9.28003 8.53406C9.28003 8.51906 9.29503 8.50406 9.31003 8.50406V8.49906ZM9.33003 8.57406H10.1C10.115 8.57406 10.13 8.58906 10.13 8.60906C10.13 8.62906 10.115 8.64406 10.1 8.64406H9.32503C9.30503 8.64406 9.29503 8.62906 9.29503 8.60906C9.29503 8.58906 9.30503 8.57406 9.32503 8.57406H9.33003ZM9.58003 8.04406H9.64003V8.08406H9.68503V8.04406H9.75003V8.08906H9.79503V8.03906H9.85503V8.13906C9.85503 8.15906 9.84503 8.16906 9.83003 8.16906H9.61003C9.59503 8.16906 9.58003 8.15906 9.58003 8.14406V8.04406Z" stroke="black" stroke-width="0.0666669"/>
<path d="M9.54998 8.32812V8.49813H9.34998V8.32812H9.54998Z" fill="#FFFF00" stroke="black" stroke-width="0.0666669"/>
<path d="M9.54998 8.32812V8.49813H9.34998V8.32812H9.54998Z" fill="#FFFF00" stroke="black" stroke-width="0.0666669"/>
<path d="M9.31506 8.19922H9.37506V8.24922H9.42006V8.19922H9.48006V8.24922H9.52506V8.19922H9.58506V8.29922C9.58506 8.31922 9.57506 8.32922 9.56006 8.32922H9.34506C9.33711 8.32922 9.32948 8.32606 9.32385 8.32043C9.31822 8.31481 9.31506 8.30718 9.31506 8.29922V8.19922Z" fill="#FFFF00" stroke="black" stroke-width="0.0666669"/>
<path d="M9.31506 8.19922H9.37506V8.24922H9.42006V8.19922H9.48006V8.24922H9.52506V8.19922H9.58506V8.29922C9.58506 8.31922 9.57506 8.32922 9.56006 8.32922H9.34506C9.33711 8.32922 9.32948 8.32606 9.32385 8.32043C9.31822 8.31481 9.31506 8.30718 9.31506 8.29922V8.19922Z" fill="#FFFF00" stroke="black" stroke-width="0.0666669"/>
<path d="M9.69507 8.28031C9.69507 8.25031 9.74007 8.25031 9.74007 8.28031V8.36031H9.69507V8.28031Z" fill="black"/>
<path d="M9.43005 8.38969C9.43005 8.35969 9.47005 8.35969 9.47005 8.38969V8.44969H9.43005V8.38969Z" fill="black"/>
<path d="M9.43005 8.38969C9.43005 8.35969 9.47005 8.35969 9.47005 8.38969V8.44969H9.43005V8.38969Z" fill="black"/>
<path d="M10.4124 13.6966C10.2208 13.4993 10.3121 13.3151 10.3121 13.3151C10.3156 13.3116 10.5132 13.2119 10.7084 13.4057L10.4159 13.7001" fill="#FFFF00"/>
<path d="M10.0549 13.5796L10.2538 13.8264L10.4017 13.6774C10.2173 13.4941 10.3298 13.324 10.3298 13.324C10.3333 13.3205 10.5097 13.2209 10.6871 13.39L10.8351 13.241L10.5798 13.0439L10.0514 13.576L10.0549 13.5796ZM10.2467 13.8405L10.8457 13.2374C10.8563 13.2268 10.8775 13.2267 10.8917 13.2408C10.9094 13.2584 10.9095 13.2796 10.8989 13.2902L10.3 13.8934C10.2894 13.904 10.2682 13.9041 10.2504 13.8865C10.2362 13.8724 10.2362 13.8512 10.2503 13.837L10.2467 13.8405Z" fill="#FFFF00" stroke="black" stroke-width="0.0666669"/>
<path d="M10.4615 13.6173C10.3444 13.501 10.3935 13.3877 10.3935 13.3877C10.3935 13.3877 10.5101 13.3413 10.6236 13.4541L10.4615 13.6173ZM9.93787 13.506L10.5122 12.9277C10.5227 12.917 10.5475 12.9205 10.5617 12.9346C10.5723 12.9451 10.5724 12.9663 10.5618 12.977L9.98754 13.5553C9.97697 13.5659 9.95576 13.566 9.94157 13.5519C9.93093 13.5414 9.93085 13.5201 9.94142 13.5095L9.93787 13.506ZM10.0052 13.5446L10.5478 12.9983C10.5583 12.9876 10.5795 12.9875 10.5937 13.0016C10.6079 13.0157 10.608 13.0369 10.5974 13.0476L10.0513 13.5975C10.0372 13.6117 10.0195 13.6082 10.0054 13.5941C9.99117 13.58 9.98757 13.5624 10.0017 13.5482L10.0052 13.5446ZM9.80527 12.9938L9.84755 12.9512L9.87593 12.9794L9.90764 12.9475L9.87926 12.9193L9.92506 12.8731L9.95699 12.9049L9.9887 12.8729L9.95322 12.8377L9.9955 12.7951L10.0665 12.8656C10.0806 12.8797 10.0807 12.8938 10.0701 12.9045L9.91511 13.0606C9.90454 13.0712 9.88687 13.0748 9.87623 13.0642L9.80527 12.9938ZM10.0631 12.9257L10.3008 13.1405L10.1493 13.2931L9.92922 13.0534L10.0596 12.9222" fill="#FFFF00"/>
<path d="M10.0631 12.9257L10.3008 13.1405L10.1493 13.2931L9.92922 13.0534L10.0596 12.9222M10.4615 13.6173C10.3444 13.501 10.3935 13.3877 10.3935 13.3877C10.3935 13.3877 10.5101 13.3413 10.6236 13.4541L10.4615 13.6173ZM9.93787 13.506L10.5122 12.9277C10.5227 12.917 10.5475 12.9205 10.5617 12.9346C10.5723 12.9451 10.5724 12.9663 10.5618 12.977L9.98754 13.5553C9.97697 13.5659 9.95576 13.566 9.94157 13.5519C9.93093 13.5414 9.93085 13.5201 9.94142 13.5095L9.93787 13.506ZM10.0052 13.5446L10.5478 12.9983C10.5583 12.9876 10.5795 12.9875 10.5937 13.0016C10.6079 13.0157 10.608 13.0369 10.5974 13.0476L10.0513 13.5975C10.0372 13.6117 10.0195 13.6082 10.0054 13.5941C9.99117 13.58 9.98757 13.5624 10.0017 13.5482L10.0052 13.5446ZM9.80527 12.9938L9.84755 12.9512L9.87593 12.9794L9.90764 12.9475L9.87926 12.9193L9.92506 12.8731L9.95699 12.9049L9.9887 12.8729L9.95322 12.8377L9.9955 12.7951L10.0665 12.8656C10.0806 12.8797 10.0807 12.8938 10.0701 12.9045L9.91511 13.0606C9.90454 13.0712 9.88687 13.0748 9.87623 13.0642L9.80527 12.9938Z" stroke="black" stroke-width="0.0666669"/>
<path d="M9.98639 13.2175L10.107 13.3372L9.96609 13.4792L9.84546 13.3594L9.98639 13.2175Z" fill="#FFFF00" stroke="black" stroke-width="0.0666669"/>
<path d="M9.98639 13.2175L10.107 13.3372L9.96609 13.4792L9.84546 13.3594L9.98639 13.2175Z" fill="#FFFF00" stroke="black" stroke-width="0.0666669"/>
<path d="M9.72864 13.293L9.77092 13.2504L9.80639 13.2856L9.8381 13.2537L9.80262 13.2185L9.8449 13.1759L9.88038 13.2111L9.91209 13.1792L9.87661 13.144L9.91889 13.1014L9.98985 13.1718C10.004 13.1859 10.0041 13.2001 9.99352 13.2107L9.84202 13.3633C9.83641 13.3689 9.8288 13.3721 9.82084 13.3721C9.81288 13.3722 9.80524 13.369 9.79959 13.3634L9.72864 13.293Z" fill="#FFFF00" stroke="black" stroke-width="0.0666669"/>
<path d="M9.72864 13.293L9.77092 13.2504L9.80639 13.2856L9.8381 13.2537L9.80262 13.2185L9.8449 13.1759L9.88038 13.2111L9.91209 13.1792L9.87661 13.144L9.91889 13.1014L9.98985 13.1718C10.004 13.1859 10.0041 13.2001 9.99352 13.2107L9.84202 13.3633C9.83641 13.3689 9.8288 13.3721 9.82084 13.3721C9.81288 13.3722 9.80524 13.369 9.79959 13.3634L9.72864 13.293Z" fill="#FFFF00" stroke="black" stroke-width="0.0666669"/>
<path d="M10.0531 13.0784C10.0318 13.0572 10.0635 13.0253 10.0848 13.0464L10.1415 13.1028L10.1098 13.1347L10.0531 13.0784Z" fill="black"/>
<path d="M9.94443 13.344C9.92314 13.3228 9.95133 13.2945 9.97262 13.3156L10.0152 13.3579L9.98701 13.3863L9.94443 13.344Z" fill="black"/>
<path d="M9.94443 13.344C9.92314 13.3228 9.95133 13.2945 9.97262 13.3156L10.0152 13.3579L9.98701 13.3863L9.94443 13.344Z" fill="black"/>
<path d="M9.51001 8.96891C9.51501 8.69391 9.71001 8.62891 9.71001 8.62891C9.71501 8.62891 9.92501 8.69891 9.92501 8.97391H9.51001" fill="#FFFF00"/>
<path d="M9.34001 8.63391L9.30501 8.94891H9.51501C9.51501 8.68891 9.71501 8.64891 9.71501 8.64891C9.72001 8.64891 9.91501 8.70391 9.92001 8.94891H10.13L10.09 8.62891H9.34001V8.63391ZM9.29001 8.95391H10.14C10.155 8.95391 10.17 8.96891 10.17 8.98891C10.17 9.01391 10.155 9.02891 10.14 9.02891H9.29001C9.27501 9.02891 9.26001 9.01391 9.26001 8.98891C9.26001 8.96891 9.27501 8.95391 9.29501 8.95391H9.29001Z" fill="#FFFF00" stroke="black" stroke-width="0.0666669"/>
<path d="M9.60003 8.94907C9.60003 8.78406 9.71503 8.73906 9.71503 8.73906C9.71503 8.73906 9.83003 8.78906 9.83003 8.94907H9.60003ZM9.31003 8.49906H10.125C10.14 8.49906 10.155 8.51906 10.155 8.53906C10.155 8.55406 10.14 8.56906 10.125 8.56906H9.31003C9.29503 8.56906 9.28003 8.55406 9.28003 8.53406C9.28003 8.51906 9.29503 8.50406 9.31003 8.50406V8.49906ZM9.33003 8.57406H10.1C10.115 8.57406 10.13 8.58906 10.13 8.60906C10.13 8.62906 10.115 8.64406 10.1 8.64406H9.32503C9.30503 8.64406 9.29503 8.62906 9.29503 8.60906C9.29503 8.58906 9.30503 8.57406 9.32503 8.57406H9.33003ZM9.58003 8.04406H9.64003V8.08406H9.68503V8.04406H9.75003V8.08906H9.79503V8.03906H9.85503V8.13906C9.85503 8.15906 9.84503 8.16906 9.83003 8.16906H9.61003C9.59503 8.16906 9.58003 8.15906 9.58003 8.14406V8.04406ZM9.81003 8.17906L9.82503 8.49906H9.61003L9.62503 8.17406H9.81003" fill="#FFFF00"/>
<path d="M9.81003 8.17906L9.82503 8.49906H9.61003L9.62503 8.17406H9.81003M9.60003 8.94907C9.60003 8.78406 9.71503 8.73906 9.71503 8.73906C9.71503 8.73906 9.83003 8.78906 9.83003 8.94907H9.60003ZM9.31003 8.49906H10.125C10.14 8.49906 10.155 8.51906 10.155 8.53906C10.155 8.55406 10.14 8.56906 10.125 8.56906H9.31003C9.29503 8.56906 9.28003 8.55406 9.28003 8.53406C9.28003 8.51906 9.29503 8.50406 9.31003 8.50406V8.49906ZM9.33003 8.57406H10.1C10.115 8.57406 10.13 8.58906 10.13 8.60906C10.13 8.62906 10.115 8.64406 10.1 8.64406H9.32503C9.30503 8.64406 9.29503 8.62906 9.29503 8.60906C9.29503 8.58906 9.30503 8.57406 9.32503 8.57406H9.33003ZM9.58003 8.04406H9.64003V8.08406H9.68503V8.04406H9.75003V8.08906H9.79503V8.03906H9.85503V8.13906C9.85503 8.15906 9.84503 8.16906 9.83003 8.16906H9.61003C9.59503 8.16906 9.58003 8.15906 9.58003 8.14406V8.04406Z" stroke="black" stroke-width="0.0666669"/>
<path d="M9.54998 8.32812V8.49813H9.34998V8.32812H9.54998Z" fill="#FFFF00" stroke="black" stroke-width="0.0666669"/>
<path d="M9.54998 8.32812V8.49813H9.34998V8.32812H9.54998Z" fill="#FFFF00" stroke="black" stroke-width="0.0666669"/>
<path d="M9.31506 8.19922H9.37506V8.24922H9.42006V8.19922H9.48006V8.24922H9.52506V8.19922H9.58506V8.29922C9.58506 8.31922 9.57506 8.32922 9.56006 8.32922H9.34506C9.33711 8.32922 9.32948 8.32606 9.32385 8.32043C9.31822 8.31481 9.31506 8.30718 9.31506 8.29922V8.19922Z" fill="#FFFF00" stroke="black" stroke-width="0.0666669"/>
<path d="M9.31506 8.19922H9.37506V8.24922H9.42006V8.19922H9.48006V8.24922H9.52506V8.19922H9.58506V8.29922C9.58506 8.31922 9.57506 8.32922 9.56006 8.32922H9.34506C9.33711 8.32922 9.32948 8.32606 9.32385 8.32043C9.31822 8.31481 9.31506 8.30718 9.31506 8.29922V8.19922Z" fill="#FFFF00" stroke="black" stroke-width="0.0666669"/>
<path d="M9.69507 8.28031C9.69507 8.25031 9.74007 8.25031 9.74007 8.28031V8.36031H9.69507V8.28031Z" fill="black"/>
<path d="M9.43005 8.38969C9.43005 8.35969 9.47005 8.35969 9.47005 8.38969V8.44969H9.43005V8.38969Z" fill="black"/>
<path d="M9.43005 8.38969C9.43005 8.35969 9.47005 8.35969 9.47005 8.38969V8.44969H9.43005V8.38969Z" fill="black"/>
<path d="M14.4801 8.96891C14.4751 8.69391 14.2801 8.62891 14.2801 8.62891C14.2751 8.62891 14.0651 8.69891 14.0651 8.97391H14.4801" fill="#FFFF00"/>
<path d="M14.6501 8.63391L14.6851 8.94891H14.4751C14.4751 8.68891 14.2751 8.64891 14.2751 8.64891C14.2701 8.64891 14.0751 8.70391 14.0701 8.94891H13.8601L13.9001 8.62891H14.6501V8.63391ZM14.7001 8.95391H13.8501C13.8351 8.95391 13.8201 8.96891 13.8201 8.98891C13.8201 9.01391 13.8351 9.02891 13.8501 9.02891H14.7001C14.7151 9.02891 14.7301 9.01391 14.7301 8.98891C14.7301 8.96891 14.7151 8.95391 14.6951 8.95391H14.7001Z" fill="#FFFF00" stroke="black" stroke-width="0.0666669"/>
<path d="M14.3901 8.94907C14.3901 8.78406 14.2751 8.73906 14.2751 8.73906C14.2751 8.73906 14.1601 8.78906 14.1601 8.94907H14.3901ZM14.6801 8.49906H13.8651C13.8501 8.49906 13.8351 8.51906 13.8351 8.53906C13.8351 8.55406 13.8501 8.56906 13.8651 8.56906H14.6801C14.6951 8.56906 14.7101 8.55406 14.7101 8.53406C14.7101 8.51906 14.6951 8.50406 14.6801 8.50406V8.49906ZM14.6601 8.57406H13.8901C13.8751 8.57406 13.8601 8.58906 13.8601 8.60906C13.8601 8.62906 13.8751 8.64406 13.8901 8.64406H14.6651C14.6851 8.64406 14.6951 8.62906 14.6951 8.60906C14.6951 8.58906 14.6851 8.57406 14.6651 8.57406H14.6601ZM14.4101 8.04406H14.3501V8.08406H14.3051V8.04406H14.2401V8.08906H14.1951V8.03906H14.1351V8.13906C14.1351 8.15906 14.1451 8.16906 14.1601 8.16906H14.3801C14.3951 8.16906 14.4101 8.15906 14.4101 8.14406V8.04406ZM14.1801 8.17906L14.1651 8.49906H14.3801L14.3651 8.17406H14.1801" fill="#FFFF00"/>
<path d="M14.1801 8.17906L14.1651 8.49906H14.3801L14.3651 8.17406H14.1801M14.3901 8.94907C14.3901 8.78406 14.2751 8.73906 14.2751 8.73906C14.2751 8.73906 14.1601 8.78906 14.1601 8.94907H14.3901ZM14.6801 8.49906H13.8651C13.8501 8.49906 13.8351 8.51906 13.8351 8.53906C13.8351 8.55406 13.8501 8.56906 13.8651 8.56906H14.6801C14.6951 8.56906 14.7101 8.55406 14.7101 8.53406C14.7101 8.51906 14.6951 8.50406 14.6801 8.50406V8.49906ZM14.6601 8.57406H13.8901C13.8751 8.57406 13.8601 8.58906 13.8601 8.60906C13.8601 8.62906 13.8751 8.64406 13.8901 8.64406H14.6651C14.6851 8.64406 14.6951 8.62906 14.6951 8.60906C14.6951 8.58906 14.6851 8.57406 14.6651 8.57406H14.6601ZM14.4101 8.04406H14.3501V8.08406H14.3051V8.04406H14.2401V8.08906H14.1951V8.03906H14.1351V8.13906C14.1351 8.15906 14.1451 8.16906 14.1601 8.16906H14.3801C14.3951 8.16906 14.4101 8.15906 14.4101 8.14406V8.04406Z" stroke="black" stroke-width="0.0666669"/>
<path d="M14.4401 8.32812V8.49813H14.6401V8.32812H14.4401Z" fill="#FFFF00" stroke="black" stroke-width="0.0666669"/>
<path d="M14.4401 8.32812V8.49813H14.6401V8.32812H14.4401Z" fill="#FFFF00" stroke="black" stroke-width="0.0666669"/>
<path d="M14.675 8.19922H14.615V8.24922H14.57V8.19922H14.51V8.24922H14.465V8.19922H14.405V8.29922C14.405 8.31922 14.415 8.32922 14.43 8.32922H14.645C14.653 8.32922 14.6606 8.32606 14.6663 8.32043C14.6719 8.31481 14.675 8.30718 14.675 8.29922V8.19922Z" fill="#FFFF00" stroke="black" stroke-width="0.0666669"/>
<path d="M14.675 8.19922H14.615V8.24922H14.57V8.19922H14.51V8.24922H14.465V8.19922H14.405V8.29922C14.405 8.31922 14.415 8.32922 14.43 8.32922H14.645C14.653 8.32922 14.6606 8.32606 14.6663 8.32043C14.6719 8.31481 14.675 8.30718 14.675 8.29922V8.19922Z" fill="#FFFF00" stroke="black" stroke-width="0.0666669"/>
<path d="M14.295 8.28031C14.295 8.25031 14.25 8.25031 14.25 8.28031V8.36031H14.295V8.28031Z" fill="black"/>
<path d="M14.5601 8.38969C14.5601 8.35969 14.5201 8.35969 14.5201 8.38969V8.44969H14.5601V8.38969Z" fill="black"/>
<path d="M14.5601 8.38969C14.5601 8.35969 14.5201 8.35969 14.5201 8.38969V8.44969H14.5601V8.38969Z" fill="black"/>
<path d="M14.4801 8.96891C14.4751 8.69391 14.2801 8.62891 14.2801 8.62891C14.2751 8.62891 14.0651 8.69891 14.0651 8.97391H14.4801" fill="#FFFF00"/>
<path d="M14.6501 8.63391L14.6851 8.94891H14.4751C14.4751 8.68891 14.2751 8.64891 14.2751 8.64891C14.2701 8.64891 14.0751 8.70391 14.0701 8.94891H13.8601L13.9001 8.62891H14.6501V8.63391ZM14.7001 8.95391H13.8501C13.8351 8.95391 13.8201 8.96891 13.8201 8.98891C13.8201 9.01391 13.8351 9.02891 13.8501 9.02891H14.7001C14.7151 9.02891 14.7301 9.01391 14.7301 8.98891C14.7301 8.96891 14.7151 8.95391 14.6951 8.95391H14.7001Z" fill="#FFFF00" stroke="black" stroke-width="0.0666669"/>
<path d="M14.3901 8.94907C14.3901 8.78406 14.2751 8.73906 14.2751 8.73906C14.2751 8.73906 14.1601 8.78906 14.1601 8.94907H14.3901ZM14.6801 8.49906H13.8651C13.8501 8.49906 13.8351 8.51906 13.8351 8.53906C13.8351 8.55406 13.8501 8.56906 13.8651 8.56906H14.6801C14.6951 8.56906 14.7101 8.55406 14.7101 8.53406C14.7101 8.51906 14.6951 8.50406 14.6801 8.50406V8.49906ZM14.6601 8.57406H13.8901C13.8751 8.57406 13.8601 8.58906 13.8601 8.60906C13.8601 8.62906 13.8751 8.64406 13.8901 8.64406H14.6651C14.6851 8.64406 14.6951 8.62906 14.6951 8.60906C14.6951 8.58906 14.6851 8.57406 14.6651 8.57406H14.6601ZM14.4101 8.04406H14.3501V8.08406H14.3051V8.04406H14.2401V8.08906H14.1951V8.03906H14.1351V8.13906C14.1351 8.15906 14.1451 8.16906 14.1601 8.16906H14.3801C14.3951 8.16906 14.4101 8.15906 14.4101 8.14406V8.04406ZM14.1801 8.17906L14.1651 8.49906H14.3801L14.3651 8.17406H14.1801" fill="#FFFF00"/>
<path d="M14.1801 8.17906L14.1651 8.49906H14.3801L14.3651 8.17406H14.1801M14.3901 8.94907C14.3901 8.78406 14.2751 8.73906 14.2751 8.73906C14.2751 8.73906 14.1601 8.78906 14.1601 8.94907H14.3901ZM14.6801 8.49906H13.8651C13.8501 8.49906 13.8351 8.51906 13.8351 8.53906C13.8351 8.55406 13.8501 8.56906 13.8651 8.56906H14.6801C14.6951 8.56906 14.7101 8.55406 14.7101 8.53406C14.7101 8.51906 14.6951 8.50406 14.6801 8.50406V8.49906ZM14.6601 8.57406H13.8901C13.8751 8.57406 13.8601 8.58906 13.8601 8.60906C13.8601 8.62906 13.8751 8.64406 13.8901 8.64406H14.6651C14.6851 8.64406 14.6951 8.62906 14.6951 8.60906C14.6951 8.58906 14.6851 8.57406 14.6651 8.57406H14.6601ZM14.4101 8.04406H14.3501V8.08406H14.3051V8.04406H14.2401V8.08906H14.1951V8.03906H14.1351V8.13906C14.1351 8.15906 14.1451 8.16906 14.1601 8.16906H14.3801C14.3951 8.16906 14.4101 8.15906 14.4101 8.14406V8.04406Z" stroke="black" stroke-width="0.0666669"/>
<path d="M14.4401 8.32812V8.49813H14.6401V8.32812H14.4401Z" fill="#FFFF00" stroke="black" stroke-width="0.0666669"/>
<path d="M14.4401 8.32812V8.49813H14.6401V8.32812H14.4401Z" fill="#FFFF00" stroke="black" stroke-width="0.0666669"/>
<path d="M14.675 8.19922H14.615V8.24922H14.57V8.19922H14.51V8.24922H14.465V8.19922H14.405V8.29922C14.405 8.31922 14.415 8.32922 14.43 8.32922H14.645C14.653 8.32922 14.6606 8.32606 14.6663 8.32043C14.6719 8.31481 14.675 8.30718 14.675 8.29922V8.19922Z" fill="#FFFF00" stroke="black" stroke-width="0.0666669"/>
<path d="M14.675 8.19922H14.615V8.24922H14.57V8.19922H14.51V8.24922H14.465V8.19922H14.405V8.29922C14.405 8.31922 14.415 8.32922 14.43 8.32922H14.645C14.653 8.32922 14.6606 8.32606 14.6663 8.32043C14.6719 8.31481 14.675 8.30718 14.675 8.29922V8.19922Z" fill="#FFFF00" stroke="black" stroke-width="0.0666669"/>
<path d="M14.295 8.28031C14.295 8.25031 14.25 8.25031 14.25 8.28031V8.36031H14.295V8.28031Z" fill="black"/>
<path d="M14.5601 8.38969C14.5601 8.35969 14.5201 8.35969 14.5201 8.38969V8.44969H14.5601V8.38969Z" fill="black"/>
<path d="M14.5601 8.38969C14.5601 8.35969 14.5201 8.35969 14.5201 8.38969V8.44969H14.5601V8.38969Z" fill="black"/>
<path d="M13.5777 13.6966C13.7693 13.4993 13.678 13.3151 13.678 13.3151C13.6745 13.3116 13.4769 13.2119 13.2817 13.4057L13.5742 13.7001" fill="#FFFF00"/>
<path d="M13.9352 13.5796L13.7363 13.8264L13.5884 13.6774C13.7729 13.4941 13.6603 13.324 13.6603 13.324C13.6568 13.3205 13.4804 13.2209 13.303 13.39L13.155 13.241L13.4103 13.0439L13.9387 13.576L13.9352 13.5796ZM13.7434 13.8405L13.1444 13.2374C13.1339 13.2268 13.1126 13.2267 13.0985 13.2408C13.0807 13.2584 13.0806 13.2796 13.0912 13.2902L13.6901 13.8934C13.7007 13.904 13.7219 13.9041 13.7397 13.8865C13.7539 13.8724 13.7539 13.8512 13.7398 13.837L13.7434 13.8405Z" fill="#FFFF00" stroke="black" stroke-width="0.0666669"/>
<path d="M13.5286 13.6173C13.6457 13.501 13.5966 13.3877 13.5966 13.3877C13.5966 13.3877 13.4801 13.3413 13.3665 13.4541L13.5286 13.6173ZM14.0522 13.506L13.478 12.9277C13.4674 12.917 13.4426 12.9205 13.4284 12.9346C13.4178 12.9451 13.4177 12.9663 13.4283 12.977L14.0026 13.5553C14.0131 13.5659 14.0344 13.566 14.0485 13.5519C14.0592 13.5414 14.0593 13.5201 14.0487 13.5095L14.0522 13.506ZM13.9849 13.5446L13.4424 12.9983C13.4318 12.9876 13.4106 12.9875 13.3964 13.0016C13.3822 13.0157 13.3821 13.0369 13.3927 13.0476L13.9388 13.5975C13.9529 13.6117 13.9706 13.6082 13.9848 13.5941C13.9989 13.58 14.0025 13.5624 13.9885 13.5482L13.9849 13.5446ZM14.1848 12.9938L14.1426 12.9512L14.1142 12.9794L14.0825 12.9475L14.1109 12.9193L14.0651 12.8731L14.0331 12.9049L14.0014 12.8729L14.0369 12.8377L13.9946 12.7951L13.9237 12.8656C13.9095 12.8797 13.9094 12.8938 13.92 12.9045L14.075 13.0606C14.0856 13.0712 14.1032 13.0748 14.1139 13.0642L14.1848 12.9938ZM13.927 12.9257L13.6894 13.1405L13.8408 13.2931L14.0609 13.0534L13.9305 12.9222" fill="#FFFF00"/>
<path d="M13.927 12.9257L13.6894 13.1405L13.8408 13.2931L14.0609 13.0534L13.9305 12.9222M13.5286 13.6173C13.6457 13.501 13.5966 13.3877 13.5966 13.3877C13.5966 13.3877 13.4801 13.3413 13.3665 13.4541L13.5286 13.6173ZM14.0522 13.506L13.478 12.9277C13.4674 12.917 13.4426 12.9205 13.4284 12.9346C13.4178 12.9451 13.4177 12.9663 13.4283 12.977L14.0026 13.5553C14.0131 13.5659 14.0344 13.566 14.0485 13.5519C14.0592 13.5414 14.0593 13.5201 14.0487 13.5095L14.0522 13.506ZM13.9849 13.5446L13.4424 12.9983C13.4318 12.9876 13.4106 12.9875 13.3964 13.0016C13.3822 13.0157 13.3821 13.0369 13.3927 13.0476L13.9388 13.5975C13.9529 13.6117 13.9706 13.6082 13.9848 13.5941C13.9989 13.58 14.0025 13.5624 13.9885 13.5482L13.9849 13.5446ZM14.1848 12.9938L14.1426 12.9512L14.1142 12.9794L14.0825 12.9475L14.1109 12.9193L14.0651 12.8731L14.0331 12.9049L14.0014 12.8729L14.0369 12.8377L13.9946 12.7951L13.9237 12.8656C13.9095 12.8797 13.9094 12.8938 13.92 12.9045L14.075 13.0606C14.0856 13.0712 14.1032 13.0748 14.1139 13.0642L14.1848 12.9938Z" stroke="black" stroke-width="0.0666669"/>
<path d="M14.0037 13.2175L13.8831 13.3372L14.024 13.4792L14.1447 13.3594L14.0037 13.2175Z" fill="#FFFF00" stroke="black" stroke-width="0.0666669"/>
<path d="M14.0037 13.2175L13.8831 13.3372L14.024 13.4792L14.1447 13.3594L14.0037 13.2175Z" fill="#FFFF00" stroke="black" stroke-width="0.0666669"/>
<path d="M14.2615 13.293L14.2192 13.2504L14.1837 13.2856L14.152 13.2537L14.1875 13.2185L14.1452 13.1759L14.1097 13.2111L14.078 13.1792L14.1135 13.144L14.0712 13.1014L14.0003 13.1718C13.9861 13.1859 13.986 13.2001 13.9966 13.2107L14.1481 13.3633C14.1537 13.3689 14.1613 13.3721 14.1693 13.3721C14.1772 13.3722 14.1849 13.369 14.1905 13.3634L14.2615 13.293Z" fill="#FFFF00" stroke="black" stroke-width="0.0666669"/>
<path d="M14.2615 13.293L14.2192 13.2504L14.1837 13.2856L14.152 13.2537L14.1875 13.2185L14.1452 13.1759L14.1097 13.2111L14.078 13.1792L14.1135 13.144L14.0712 13.1014L14.0003 13.1718C13.9861 13.1859 13.986 13.2001 13.9966 13.2107L14.1481 13.3633C14.1537 13.3689 14.1613 13.3721 14.1693 13.3721C14.1772 13.3722 14.1849 13.369 14.1905 13.3634L14.2615 13.293Z" fill="#FFFF00" stroke="black" stroke-width="0.0666669"/>
<path d="M13.937 13.0784C13.9583 13.0572 13.9266 13.0253 13.9053 13.0464L13.8486 13.1028L13.8803 13.1347L13.937 13.0784Z" fill="black"/>
<path d="M14.0457 13.344C14.067 13.3228 14.0388 13.2945 14.0175 13.3156L13.9749 13.3579L14.0031 13.3863L14.0457 13.344Z" fill="black"/>
<path d="M14.0457 13.344C14.067 13.3228 14.0388 13.2945 14.0175 13.3156L13.9749 13.3579L14.0031 13.3863L14.0457 13.344Z" fill="black"/>
<path d="M11.63 11.372C11.6291 11.4776 11.6684 11.5795 11.74 11.657C11.7734 11.6944 11.8142 11.7243 11.8599 11.745C11.9055 11.7657 11.9549 11.7766 12.005 11.777C12.11 11.777 12.205 11.727 12.27 11.657C12.3416 11.5795 12.3809 11.4776 12.38 11.372V10.832H11.63V11.372Z" fill="#003399"/>
<path d="M11.805 11.1109C11.8464 11.1109 11.88 11.0774 11.88 11.0359C11.88 10.9945 11.8464 10.9609 11.805 10.9609C11.7636 10.9609 11.73 10.9945 11.73 11.0359C11.73 11.0774 11.7636 11.1109 11.805 11.1109Z" fill="white"/>
<path d="M12.22 11.1109C12.2614 11.1109 12.295 11.0774 12.295 11.0359C12.295 10.9945 12.2614 10.9609 12.22 10.9609C12.1786 10.9609 12.145 10.9945 12.145 11.0359C12.145 11.0774 12.1786 11.1109 12.22 11.1109Z" fill="white"/>
<path d="M12.0101 11.3102C12.0515 11.3102 12.0851 11.2766 12.0851 11.2352C12.0851 11.1937 12.0515 11.1602 12.0101 11.1602C11.9686 11.1602 11.9351 11.1937 11.9351 11.2352C11.9351 11.2766 11.9686 11.3102 12.0101 11.3102Z" fill="white"/>
<path d="M11.805 11.5211C11.8464 11.5211 11.88 11.4875 11.88 11.4461C11.88 11.4047 11.8464 11.3711 11.805 11.3711C11.7636 11.3711 11.73 11.4047 11.73 11.4461C11.73 11.4875 11.7636 11.5211 11.805 11.5211Z" fill="white"/>
<path d="M12.22 11.5211C12.2614 11.5211 12.295 11.4875 12.295 11.4461C12.295 11.4047 12.2614 11.3711 12.22 11.3711C12.1786 11.3711 12.145 11.4047 12.145 11.4461C12.145 11.4875 12.1786 11.5211 12.22 11.5211Z" fill="white"/>
<path d="M11.63 11.372C11.6291 11.4776 11.6684 11.5795 11.74 11.657C11.7734 11.6944 11.8142 11.7243 11.8599 11.745C11.9055 11.7657 11.9549 11.7766 12.005 11.777C12.11 11.777 12.205 11.727 12.27 11.657C12.3416 11.5795 12.3809 11.4776 12.38 11.372V10.832H11.63V11.372Z" fill="#003399"/>
<path d="M11.805 11.1109C11.8464 11.1109 11.88 11.0774 11.88 11.0359C11.88 10.9945 11.8464 10.9609 11.805 10.9609C11.7636 10.9609 11.73 10.9945 11.73 11.0359C11.73 11.0774 11.7636 11.1109 11.805 11.1109Z" fill="white"/>
<path d="M12.22 11.1109C12.2614 11.1109 12.295 11.0774 12.295 11.0359C12.295 10.9945 12.2614 10.9609 12.22 10.9609C12.1786 10.9609 12.145 10.9945 12.145 11.0359C12.145 11.0774 12.1786 11.1109 12.22 11.1109Z" fill="white"/>
<path d="M12.0101 11.3102C12.0515 11.3102 12.0851 11.2766 12.0851 11.2352C12.0851 11.1937 12.0515 11.1602 12.0101 11.1602C11.9686 11.1602 11.9351 11.1937 11.9351 11.2352C11.9351 11.2766 11.9686 11.3102 12.0101 11.3102Z" fill="white"/>
<path d="M11.805 11.5211C11.8464 11.5211 11.88 11.4875 11.88 11.4461C11.88 11.4047 11.8464 11.3711 11.805 11.3711C11.7636 11.3711 11.73 11.4047 11.73 11.4461C11.73 11.4875 11.7636 11.5211 11.805 11.5211Z" fill="white"/>
<path d="M12.22 11.5211C12.2614 11.5211 12.295 11.4875 12.295 11.4461C12.295 11.4047 12.2614 11.3711 12.22 11.3711C12.1786 11.3711 12.145 11.4047 12.145 11.4461C12.145 11.4875 12.1786 11.5211 12.22 11.5211Z" fill="white"/>
<path d="M11.63 11.372C11.6291 11.4776 11.6684 11.5795 11.74 11.657C11.7734 11.6944 11.8142 11.7243 11.8599 11.745C11.9055 11.7657 11.9549 11.7766 12.005 11.777C12.11 11.777 12.205 11.727 12.27 11.657C12.3416 11.5795 12.3809 11.4776 12.38 11.372V10.832H11.63V11.372Z" fill="#003399"/>
<path d="M11.805 11.1109C11.8464 11.1109 11.88 11.0774 11.88 11.0359C11.88 10.9945 11.8464 10.9609 11.805 10.9609C11.7636 10.9609 11.73 10.9945 11.73 11.0359C11.73 11.0774 11.7636 11.1109 11.805 11.1109Z" fill="white"/>
<path d="M12.22 11.1109C12.2614 11.1109 12.295 11.0774 12.295 11.0359C12.295 10.9945 12.2614 10.9609 12.22 10.9609C12.1786 10.9609 12.145 10.9945 12.145 11.0359C12.145 11.0774 12.1786 11.1109 12.22 11.1109Z" fill="white"/>
<path d="M12.0101 11.3102C12.0515 11.3102 12.0851 11.2766 12.0851 11.2352C12.0851 11.1937 12.0515 11.1602 12.0101 11.1602C11.9686 11.1602 11.9351 11.1937 11.9351 11.2352C11.9351 11.2766 11.9686 11.3102 12.0101 11.3102Z" fill="white"/>
<path d="M11.805 11.5211C11.8464 11.5211 11.88 11.4875 11.88 11.4461C11.88 11.4047 11.8464 11.3711 11.805 11.3711C11.7636 11.3711 11.73 11.4047 11.73 11.4461C11.73 11.4875 11.7636 11.5211 11.805 11.5211Z" fill="white"/>
<path d="M12.22 11.5211C12.2614 11.5211 12.295 11.4875 12.295 11.4461C12.295 11.4047 12.2614 11.3711 12.22 11.3711C12.1786 11.3711 12.145 11.4047 12.145 11.4461C12.145 11.4875 12.1786 11.5211 12.22 11.5211Z" fill="white"/>
<path d="M11.63 11.372C11.6291 11.4776 11.6684 11.5795 11.74 11.657C11.7734 11.6944 11.8142 11.7243 11.8599 11.745C11.9055 11.7657 11.9549 11.7766 12.005 11.777C12.11 11.777 12.205 11.727 12.27 11.657C12.3416 11.5795 12.3809 11.4776 12.38 11.372V10.832H11.63V11.372Z" fill="#003399"/>
<path d="M11.805 11.1109C11.8464 11.1109 11.88 11.0774 11.88 11.0359C11.88 10.9945 11.8464 10.9609 11.805 10.9609C11.7636 10.9609 11.73 10.9945 11.73 11.0359C11.73 11.0774 11.7636 11.1109 11.805 11.1109Z" fill="white"/>
<path d="M12.22 11.1109C12.2614 11.1109 12.295 11.0774 12.295 11.0359C12.295 10.9945 12.2614 10.9609 12.22 10.9609C12.1786 10.9609 12.145 10.9945 12.145 11.0359C12.145 11.0774 12.1786 11.1109 12.22 11.1109Z" fill="white"/>
<path d="M12.0101 11.3102C12.0515 11.3102 12.0851 11.2766 12.0851 11.2352C12.0851 11.1937 12.0515 11.1602 12.0101 11.1602C11.9686 11.1602 11.9351 11.1937 11.9351 11.2352C11.9351 11.2766 11.9686 11.3102 12.0101 11.3102Z" fill="white"/>
<path d="M11.805 11.5211C11.8464 11.5211 11.88 11.4875 11.88 11.4461C11.88 11.4047 11.8464 11.3711 11.805 11.3711C11.7636 11.3711 11.73 11.4047 11.73 11.4461C11.73 11.4875 11.7636 11.5211 11.805 11.5211Z" fill="white"/>
<path d="M12.22 11.5211C12.2614 11.5211 12.295 11.4875 12.295 11.4461C12.295 11.4047 12.2614 11.3711 12.22 11.3711C12.1786 11.3711 12.145 11.4047 12.145 11.4461C12.145 11.4875 12.1786 11.5211 12.22 11.5211Z" fill="white"/>
<path d="M11.63 11.372C11.6291 11.4776 11.6684 11.5795 11.74 11.657C11.7734 11.6944 11.8142 11.7243 11.8599 11.745C11.9055 11.7657 11.9549 11.7766 12.005 11.777C12.11 11.777 12.205 11.727 12.27 11.657C12.3416 11.5795 12.3809 11.4776 12.38 11.372V10.832H11.63V11.372Z" fill="#003399"/>
<path d="M11.805 11.1109C11.8464 11.1109 11.88 11.0774 11.88 11.0359C11.88 10.9945 11.8464 10.9609 11.805 10.9609C11.7636 10.9609 11.73 10.9945 11.73 11.0359C11.73 11.0774 11.7636 11.1109 11.805 11.1109Z" fill="white"/>
<path d="M12.22 11.1109C12.2614 11.1109 12.295 11.0774 12.295 11.0359C12.295 10.9945 12.2614 10.9609 12.22 10.9609C12.1786 10.9609 12.145 10.9945 12.145 11.0359C12.145 11.0774 12.1786 11.1109 12.22 11.1109Z" fill="white"/>
<path d="M12.0101 11.3102C12.0515 11.3102 12.0851 11.2766 12.0851 11.2352C12.0851 11.1937 12.0515 11.1602 12.0101 11.1602C11.9686 11.1602 11.9351 11.1937 11.9351 11.2352C11.9351 11.2766 11.9686 11.3102 12.0101 11.3102Z" fill="white"/>
<path d="M11.805 11.5211C11.8464 11.5211 11.88 11.4875 11.88 11.4461C11.88 11.4047 11.8464 11.3711 11.805 11.3711C11.7636 11.3711 11.73 11.4047 11.73 11.4461C11.73 11.4875 11.7636 11.5211 11.805 11.5211Z" fill="white"/>
<path d="M12.22 11.5211C12.2614 11.5211 12.295 11.4875 12.295 11.4461C12.295 11.4047 12.2614 11.3711 12.22 11.3711C12.1786 11.3711 12.145 11.4047 12.145 11.4461C12.145 11.4875 12.1786 11.5211 12.22 11.5211Z" fill="white"/>
</g>
<defs>
<clipPath id="clip0_5639_39460">
<rect width="30" height="22.5" fill="white"/>
</clipPath>
</defs>
</svg>
